<mxfile host="app.diagrams.net" modified="2021-01-25T04:23:11.630Z" agent="5.0 (Windows NT 10.0; Win64; x64) AppleWebKit/537.36 (KHTML, like Gecko) Chrome/87.0.4280.141 Safari/537.36" etag="9ZV7HRj852OoqKgqibXY" version="14.2.7" type="github">
  <diagram id="R2lEEEUBdFMjLlhIrx00" name="Page-1">
    <mxGraphModel dx="1422" dy="794" grid="1" gridSize="10" guides="1" tooltips="1" connect="1" arrows="1" fold="1" page="1" pageScale="1" pageWidth="850" pageHeight="1100" math="0" shadow="0" extFonts="Permanent Marker^https://fonts.googleapis.com/css?family=Permanent+Marker">
      <root>
        <mxCell id="0" />
        <mxCell id="1" parent="0" />
        <mxCell id="Kd4RHOhkoBYzq8kS-pFF-23" style="edgeStyle=none;rounded=1;jumpStyle=arc;orthogonalLoop=1;jettySize=auto;html=1;exitX=0.5;exitY=1;exitDx=0;exitDy=0;entryX=0.5;entryY=0;entryDx=0;entryDy=0;endArrow=none;endFill=0;strokeColor=#000000;startArrow=ERzeroToMany;startFill=1;targetPerimeterSpacing=12;endSize=12;startSize=12;sourcePerimeterSpacing=12;" parent="1" source="Kd4RHOhkoBYzq8kS-pFF-1" target="Kd4RHOhkoBYzq8kS-pFF-22" edge="1">
          <mxGeometry relative="1" as="geometry" />
        </mxCell>
        <mxCell id="Kd4RHOhkoBYzq8kS-pFF-1" value="Doctors" style="rounded=0;whiteSpace=wrap;html=1;" parent="1" vertex="1">
          <mxGeometry x="365" y="40" width="120" height="60" as="geometry" />
        </mxCell>
        <mxCell id="Kd4RHOhkoBYzq8kS-pFF-19" style="edgeStyle=none;rounded=0;jumpStyle=arc;orthogonalLoop=1;jettySize=auto;html=1;endArrow=none;endFill=0;" parent="1" source="Kd4RHOhkoBYzq8kS-pFF-15" target="Kd4RHOhkoBYzq8kS-pFF-1" edge="1">
          <mxGeometry relative="1" as="geometry" />
        </mxCell>
        <mxCell id="Kd4RHOhkoBYzq8kS-pFF-15" value="DoctorID" style="ellipse;whiteSpace=wrap;html=1;align=center;fontStyle=4;" parent="1" vertex="1">
          <mxGeometry x="170" y="50" width="110" height="40" as="geometry" />
        </mxCell>
        <mxCell id="Kd4RHOhkoBYzq8kS-pFF-18" style="edgeStyle=none;rounded=0;jumpStyle=arc;orthogonalLoop=1;jettySize=auto;html=1;exitX=1;exitY=0.5;exitDx=0;exitDy=0;entryX=0;entryY=0.5;entryDx=0;entryDy=0;endArrow=none;endFill=0;" parent="1" source="Kd4RHOhkoBYzq8kS-pFF-17" target="Kd4RHOhkoBYzq8kS-pFF-1" edge="1">
          <mxGeometry relative="1" as="geometry" />
        </mxCell>
        <mxCell id="Kd4RHOhkoBYzq8kS-pFF-17" value="DoctorName" style="ellipse;whiteSpace=wrap;html=1;align=center;" parent="1" vertex="1">
          <mxGeometry x="170" y="140" width="100" height="40" as="geometry" />
        </mxCell>
        <mxCell id="Kd4RHOhkoBYzq8kS-pFF-21" style="edgeStyle=none;rounded=0;jumpStyle=arc;orthogonalLoop=1;jettySize=auto;html=1;entryX=1;entryY=0.75;entryDx=0;entryDy=0;endArrow=none;endFill=0;" parent="1" source="Kd4RHOhkoBYzq8kS-pFF-20" target="Kd4RHOhkoBYzq8kS-pFF-1" edge="1">
          <mxGeometry relative="1" as="geometry" />
        </mxCell>
        <mxCell id="Kd4RHOhkoBYzq8kS-pFF-20" value="DoctorYearOfMDGraduation" style="ellipse;whiteSpace=wrap;html=1;align=center;" parent="1" vertex="1">
          <mxGeometry x="580" y="60" width="170" height="70" as="geometry" />
        </mxCell>
        <mxCell id="Kd4RHOhkoBYzq8kS-pFF-25" style="edgeStyle=none;rounded=1;jumpStyle=arc;orthogonalLoop=1;jettySize=auto;html=1;startArrow=none;startFill=0;endArrow=ERmandOne;endFill=0;strokeColor=#000000;startSize=11;endSize=12;" parent="1" source="Kd4RHOhkoBYzq8kS-pFF-22" target="Kd4RHOhkoBYzq8kS-pFF-24" edge="1">
          <mxGeometry relative="1" as="geometry" />
        </mxCell>
        <mxCell id="Kd4RHOhkoBYzq8kS-pFF-22" value="Work" style="shape=rhombus;perimeter=rhombusPerimeter;whiteSpace=wrap;html=1;align=center;" parent="1" vertex="1">
          <mxGeometry x="365" y="180" width="120" height="60" as="geometry" />
        </mxCell>
        <mxCell id="Kd4RHOhkoBYzq8kS-pFF-24" value="Outpatient Location" style="whiteSpace=wrap;html=1;align=center;" parent="1" vertex="1">
          <mxGeometry x="375" y="320" width="100" height="40" as="geometry" />
        </mxCell>
        <mxCell id="Kd4RHOhkoBYzq8kS-pFF-28" style="edgeStyle=none;rounded=1;jumpStyle=arc;orthogonalLoop=1;jettySize=auto;html=1;entryX=1;entryY=0.75;entryDx=0;entryDy=0;startArrow=none;startFill=0;startSize=12;sourcePerimeterSpacing=0;endArrow=none;endFill=0;endSize=12;targetPerimeterSpacing=0;strokeColor=#000000;" parent="1" source="Kd4RHOhkoBYzq8kS-pFF-26" target="Kd4RHOhkoBYzq8kS-pFF-24" edge="1">
          <mxGeometry relative="1" as="geometry" />
        </mxCell>
        <mxCell id="Kd4RHOhkoBYzq8kS-pFF-26" value="OLName" style="ellipse;whiteSpace=wrap;html=1;align=center;" parent="1" vertex="1">
          <mxGeometry x="590" y="270" width="100" height="40" as="geometry" />
        </mxCell>
        <mxCell id="Kd4RHOhkoBYzq8kS-pFF-30" style="edgeStyle=none;rounded=1;jumpStyle=arc;orthogonalLoop=1;jettySize=auto;html=1;exitX=1;exitY=0.5;exitDx=0;exitDy=0;startArrow=none;startFill=0;startSize=12;sourcePerimeterSpacing=12;endArrow=none;endFill=0;endSize=12;targetPerimeterSpacing=0;strokeColor=#000000;" parent="1" source="Kd4RHOhkoBYzq8kS-pFF-29" target="Kd4RHOhkoBYzq8kS-pFF-24" edge="1">
          <mxGeometry relative="1" as="geometry" />
        </mxCell>
        <mxCell id="Kd4RHOhkoBYzq8kS-pFF-29" value="OLID" style="ellipse;whiteSpace=wrap;html=1;align=center;fontStyle=4;" parent="1" vertex="1">
          <mxGeometry x="170" y="310" width="100" height="40" as="geometry" />
        </mxCell>
      </root>
    </mxGraphModel>
  </diagram>
</mxfile>
